PathFileType	4	(X/Y/Z)	C:\Users\Basilio\Documents\Thesis Gigler\squatting_fais\c3dfiles\075\SLS_front_pre4\markers_experimental.trc
DataRate	CameraRate	NumFrames	NumMarkers	Units	OrigDataRate	OrigDataStartFrame	OrigNumFrames
200.000000	200.000000	4	61	mm	200.000000	166	1334
Frame#	Time	FHD			LBHD			RBHD			C7			T10			CLAV			LSHO			LUUPA			LMUPA			LDUPA			LLEP			LMEP			LRAD			LUL			LRFIN			RSHO			RUPA1			RMUPA			RDUPA			RLEP			RMEP			RRAD			RUL			RUFIN			USACR			LSACR			RSACR			LTHI1			LTHI2			LTHI3			LTHI4			LLFC			LMFC			LTIB1			LTIB2			LTIB3			LTIB4			LLMAL			LMMAL			LHEE			LMT1			LMT2			LMT5			RTHI			RTHI2			RTHI3			RTHI4			RLFC			RMFC			RTIB1			RTIB2			RTIB3			RTIB4			RLMAL			RMMAL			RHEE			RMT1			RMT2			RMT5			RASI			LASI			
		X1	Y1	Z1	X2	Y2	Z2	X3	Y3	Z3	X4	Y4	Z4	X5	Y5	Z5	X6	Y6	Z6	X7	Y7	Z7	X8	Y8	Z8	X9	Y9	Z9	X10	Y10	Z10	X11	Y11	Z11	X12	Y12	Z12	X13	Y13	Z13	X14	Y14	Z14	X15	Y15	Z15	X16	Y16	Z16	X17	Y17	Z17	X18	Y18	Z18	X19	Y19	Z19	X20	Y20	Z20	X21	Y21	Z21	X22	Y22	Z22	X23	Y23	Z23	X24	Y24	Z24	X25	Y25	Z25	X26	Y26	Z26	X27	Y27	Z27	X28	Y28	Z28	X29	Y29	Z29	X30	Y30	Z30	X31	Y31	Z31	X32	Y32	Z32	X33	Y33	Z33	X34	Y34	Z34	X35	Y35	Z35	X36	Y36	Z36	X37	Y37	Z37	X38	Y38	Z38	X39	Y39	Z39	X40	Y40	Z40	X41	Y41	Z41	X42	Y42	Z42	X43	Y43	Z43	X44	Y44	Z44	X45	Y45	Z45	X46	Y46	Z46	X47	Y47	Z47	X48	Y48	Z48	X49	Y49	Z49	X50	Y50	Z50	X51	Y51	Z51	X52	Y52	Z52	X53	Y53	Z53	X54	Y54	Z54	X55	Y55	Z55	X56	Y56	Z56	X57	Y57	Z57	X58	Y58	Z58	X59	Y59	Z59	X60	Y60	Z60	X61	Y61	Z61	

167	0.8300000000000001	-314.9922180175782	1721.541015625	-884.7166748046877	-452.9194946289064	1590.504760742188	-946.6542968750002	-409.0538635253907	1629.001708984375	-794.7695312500002	-475.0284729003907	1472.808837890625	-897.509704589844	-471.6813049316407	1147.640014648438	-895.3369140625002	-329.1097106933594	1419.42724609375	-889.986511230469	-352.2315368652344	1454.095703125	-1046.894165039063	-317.0299987792969	1249.515991210938	-1153.114624023438	-277.6290893554688	1236.741333007813	-1124.98291015625	-287.9086914062501	1186.301391601563	-1158.161376953125	-250.1623229980469	1109.789306640625	-1148.862182617188	-327.6037902832032	1087.579711914063	-1104.772094726563	-166.0230255126953	1004.695739746094	-931.7744140625002	-128.6242828369141	964.0727539062502	-983.8166503906252	-104.3479843139649	995.7492675781252	-887.135192871094	-373.1966247558594	1438.361328125	-729.7525024414064	-358.3731689453126	1235.207763671875	-620.0704956054689	-316.0658569335938	1217.350952148438	-639.0346679687501	-336.0970764160157	1169.068725585938	-607.6732788085939	-304.7924804687501	1104.963012695313	-607.1742553710939	-358.9795532226563	1063.53271484375	-653.7750244140626	-145.6455078125	1025.245849609375	-821.6561279296877	-133.1251220703125	985.372497558594	-756.8785400390626	-71.14359283447267	991.220886230469	-853.970886230469	-453.6873168945314	1043.741943359375	-894.8657836914065	-456.2790527343751	1011.430419921875	-921.5621337890627	-454.8294067382814	1013.125122070313	-864.6634521484377	-328.2314147949219	746.2752685546876	-1098.813354492188	-294.6927185058594	669.7500000000001	-1101.647705078125	-248.008041381836	677.2581176757814	-1086.773071289063	-319.0855102539063	614.9013061523439	-1093.993530273438	-322.4123840332032	505.6868591308595	-1089.395141601563	-276.5856628417969	487.2645263671876	-967.5758056640627	-273.4923706054688	378.3130187988282	-1063.215209960938	-337.6887817382813	346.8011474609376	-1112.754150390625	-297.3211669921876	335.6373291015626	-1094.44091796875	-308.3009033203126	255.0026245117188	-1069.035034179688	-396.696746826172	125.7737884521485	-1089.093872070313	-365.3742370605469	131.5165100097657	-1010.011047363281	-454.5587768554689	98.38666534423831	-1048.951049804688	-249.1076965332032	51.96385574340822	-1029.290283203125	-247.9450378417969	55.82143402099611	-1078.97802734375	-288.8443298339844	45.47480773925782	-1130.13671875	-337.1343383789063	789.800476074219	-699.2731323242189	-296.4368896484376	738.9086303710939	-702.5815429687501	-265.7766113281251	747.2017211914064	-713.8526000976564	-319.4551086425782	656.5109252929689	-709.6877441406251	-327.3620910644532	502.1742553710939	-738.7584228515626	-285.1598510742188	494.7842407226564	-861.3836669921877	-283.6575622558594	352.0968627929688	-801.2974243164065	-341.9895324707032	278.5474548339844	-745.2816162109376	-305.4015808105469	270.5180053710938	-775.5405273437502	-317.2348937988282	227.0554351806641	-812.5975341796877	-395.297332763672	112.813217163086	-777.7622070312502	-360.5881652832032	135.1971435546875	-857.3820800781252	-446.705291748047	92.00033569335939	-837.2644042968752	-241.4705200195313	58.951473236084	-824.627380371094	-247.2019195556641	57.43272018432619	-782.258972167969	-289.6750488281251	36.18935775756837	-735.3245849609376	-288.2671813964844	999.5230712890627	-765.9086303710939	-294.0036621093751	991.8917236328127	-1025.53662109375	
168	0.835	-315.2276611328126	1721.450317382813	-884.245056152344	-452.9233398437501	1590.53125	-946.5505981445315	-409.5654907226564	1629.01708984375	-794.621520996094	-475.2205810546876	1472.742431640625	-897.3696899414065	-471.825408935547	1147.60546875	-895.1594848632815	-329.3134155273438	1419.418090820313	-889.6038208007815	-352.4024963378907	1454.168090820313	-1046.601196289063	-315.6874084472657	1250.169067382813	-1152.705322265625	-276.1607360839844	1237.6357421875	-1124.318237304688	-285.8942565917969	1187.105590820313	-1157.692138671875	-248.0784454345704	1110.97802734375	-1148.524536132813	-324.9607849121094	1088.173950195313	-1104.450561523438	-163.2015838623047	1006.280639648438	-931.2252197265627	-125.2144241333008	965.984802246094	-983.046813964844	-101.64208984375	998.0628662109377	-886.362976074219	-373.6183471679688	1438.384155273438	-729.5389404296876	-357.4092102050782	1235.657104492188	-619.6812744140626	-315.1172180175782	1218.120849609375	-638.6944580078126	-334.6520996093751	1169.742065429688	-607.2183227539064	-302.7586669921876	1105.882690429688	-606.5363159179689	-356.4530944824219	1063.962646484375	-653.1005249023439	-143.1141967773438	1027.292724609375	-821.136657714844	-130.1553039550782	987.3801879882815	-756.1268310546876	-68.24361419677736	993.7601318359377	-853.1365356445315	-453.5447082519532	1043.809204101563	-894.7573242187502	-456.4454650878907	1011.49951171875	-921.3328857421877	-454.9874572753907	1013.166870117188	-864.3752441406252	-328.3975219726563	746.2090454101564	-1098.546630859375	-294.9803771972657	669.7922973632814	-1101.48193359375	-248.1731262207032	677.2642822265626	-1086.640014648438	-319.1720886230469	614.9152832031251	-1093.954711914063	-322.6651611328126	505.7515869140626	-1089.3369140625	-276.7881164550782	487.3005676269532	-967.457458496094	-273.7254028320313	378.3900146484376	-1063.26171875	-337.8504943847657	346.8818054199219	-1112.728271484375	-297.5520629882813	335.6926269531251	-1094.397216796875	-307.8305358886719	254.9696197509766	-1068.49853515625	-396.7678527832032	125.7616119384766	-1089.103271484375	-365.4264221191407	131.495101928711	-1009.999267578125	-454.2037048339845	98.15441894531253	-1048.91455078125	-249.1749420166016	51.97571945190431	-1029.338989257813	-247.8658752441407	55.81951904296876	-1078.949462890625	-288.9161071777344	45.48628616333009	-1130.19384765625	-337.1073303222657	789.7916259765627	-699.0676879882814	-296.3681945800782	738.9874267578126	-702.5726318359376	-265.8397216796876	747.1943359375001	-713.7330322265626	-319.4008178710938	656.4497680664064	-709.5093994140626	-327.2920532226563	502.1562805175782	-738.6173095703126	-285.4147644042969	494.861541748047	-861.2466430664065	-283.6091308593751	352.0776672363282	-801.2078247070315	-341.9420776367188	278.5115356445313	-745.2398681640626	-305.3273620605469	270.5895690917969	-775.5195922851565	-317.1900024414063	227.0113525390626	-812.5515136718752	-395.298553466797	112.7910537719727	-777.779968261719	-360.5321655273438	135.2528076171875	-857.403747558594	-446.7281494140626	92.05500793457033	-837.2197875976565	-241.5396423339844	58.99630737304689	-824.6445312500002	-247.2056884765626	57.45075988769533	-782.3106079101565	-289.7970886230469	36.16822052001954	-735.3635253906251	-288.7303466796876	998.7913818359377	-765.3028564453126	-294.1596679687501	991.8413696289065	-1025.3193359375	
169	0.84	-315.3726806640626	1721.39501953125	-883.8081054687502	-453.0323181152345	1590.517822265625	-946.424499511719	-410.1542053222657	1629.114013671875	-794.176208496094	-475.4865722656251	1472.71435546875	-897.2354736328127	-471.9237060546876	1147.560668945313	-894.9593505859377	-329.6646118164063	1419.5283203125	-889.367126464844	-352.6553955078126	1454.25537109375	-1046.181396484375	-314.0371398925782	1250.677490234375	-1152.274047851563	-274.5450744628907	1238.609741210938	-1123.72119140625	-283.4970092773438	1187.881225585938	-1157.041870117188	-245.3423004150391	1112.083374023438	-1147.79931640625	-322.2326354980469	1088.595092773438	-1104.139282226563	-160.2309112548828	1007.865356445313	-930.712585449219	-122.0742492675782	968.1437988281252	-982.4066162109377	-98.66526031494143	1000.368347167969	-885.5747680664065	-373.9911193847657	1438.4130859375	-729.3792724609376	-356.4077453613282	1236.110961914063	-619.2323608398439	-313.9194641113282	1219.077758789063	-638.1616210937501	-333.0091857910157	1170.4560546875	-606.5939331054689	-300.7361755371094	1106.858032226563	-605.8035278320314	-353.8955993652344	1064.381225585938	-652.4626464843751	-140.3746185302735	1029.197387695313	-820.2911376953127	-127.193344116211	989.6255493164065	-755.4868774414064	-65.25221252441408	996.3003540039065	-852.1240844726565	-453.4151306152345	1043.832885742188	-894.650817871094	-456.6216125488282	1011.562377929688	-921.0362548828127	-455.0824584960939	1013.132751464844	-864.123962402344	-328.6824951171876	746.1733398437501	-1098.201782226563	-295.1272583007813	669.8913574218751	-1101.40087890625	-248.5359497070313	677.2892456054689	-1086.494873046875	-319.4144897460938	614.9412841796876	-1093.767578125	-322.9490051269532	505.8222045898439	-1089.223022460938	-277.0511474609376	487.2574157714845	-967.341003417969	-273.9320983886719	378.4363098144532	-1063.215576171875	-338.1131286621094	346.8925170898438	-1112.656005859375	-297.8284912109376	335.8123779296876	-1094.343017578125	-308.6132202148438	255.0300750732422	-1068.9638671875	-396.7361145019532	125.7208023071289	-1089.082885742188	-365.4380493164063	131.4718322753907	-1010.038513183594	-454.5975036621095	98.36260223388675	-1048.961181640625	-249.1713409423829	51.98348236083986	-1029.365966796875	-247.9129638671876	55.88748168945314	-1079.026489257813	-288.8833312988282	45.44793319702149	-1130.197387695313	-337.0947570800782	789.7489013671877	-698.8314208984376	-296.3279724121094	738.9005126953126	-702.2462768554689	-265.8517761230469	747.1574707031251	-713.5414428710939	-319.3308105468751	656.4442749023439	-709.3048095703126	-327.1627502441407	502.1536865234376	-738.5028686523439	-285.3932495117188	494.8200073242189	-861.0812988281252	-283.6377258300782	352.0822143554688	-801.207458496094	-341.9166564941407	278.5509643554688	-745.1351318359376	-305.1424865722657	270.5724792480469	-775.3819580078127	-317.1374816894532	227.0462341308594	-812.4612426757815	-395.2774353027345	112.8032989501953	-777.7484130859377	-360.5289916992188	135.3011322021485	-857.3271484375002	-446.6661071777345	92.07620239257814	-837.1995239257815	-242.0799865722657	59.19621658325197	-825.002868652344	-247.3659973144532	57.94081878662111	-782.5822753906252	-289.6790771484376	36.20572662353516	-735.3295898437501	-288.6424255371094	998.8188476562502	-765.3034667968751	-294.3370666503907	991.8386230468752	-1025.100952148438	
170	0.845	-315.6251525878907	1721.345092773438	-883.4273071289065	-453.0876464843751	1590.447998046875	-946.3249511718752	-410.6206970214845	1629.162475585938	-793.9783935546877	-475.784881591797	1472.708251953125	-897.0086669921877	-472.0196533203126	1147.528686523438	-894.7815551757815	-329.8963623046876	1419.561645507813	-889.0451660156252	-352.9361572265626	1454.364990234375	-1045.830444335938	-312.5072937011719	1251.265258789063	-1151.710693359375	-273.0413208007813	1239.481323242188	-1123.2705078125	-281.6838684082032	1188.800537109375	-1156.734252929688	-242.4323120117188	1113.4267578125	-1147.228515625	-319.3143615722657	1089.158447265625	-1103.727905273438	-156.8280029296875	1010.290588378906	-930.028259277344	-118.1013565063477	970.2192993164065	-981.397888183594	-95.55089569091798	1002.84765625	-884.7832641601565	-374.2360534667969	1438.443115234375	-729.1193847656251	-355.5170898437501	1236.544189453125	-618.8975219726564	-312.8536987304688	1219.814819335938	-637.6151123046876	-331.5811767578126	1171.207641601563	-605.9278564453126	-298.4925231933594	1107.900390625	-605.1521606445314	-351.3812561035157	1064.974731445313	-651.5296630859376	-137.6235504150391	1031.316772460938	-819.5027465820315	-124.1088027954102	991.8899536132815	-754.6473999023439	-62.31030654907228	999.1701660156252	-851.381530761719	-453.2479858398439	1043.905517578125	-894.5412597656252	-456.7548828125001	1011.62060546875	-920.7342529296877	-455.143280029297	1013.192993164063	-863.9307250976565	-328.8077697753907	746.2994995117189	-1097.978881835938	-295.3046264648438	669.9059448242189	-1101.3095703125	-248.8054962158204	677.3338623046876	-1086.297119140625	-319.6622619628907	614.9762573242189	-1093.521606445313	-323.2076416015626	505.8370056152345	-1089.094116210938	-277.3399963378907	487.1988830566407	-967.2545166015627	-274.0527954101563	378.4651489257813	-1063.025512695313	-338.3181152343751	346.9376220703126	-1112.557861328125	-297.9427490234376	335.9315490722657	-1094.293334960938	-308.7302856445313	255.0334930419922	-1068.93408203125	-396.7630310058595	125.6977844238282	-1089.064697265625	-365.4361267089844	131.474838256836	-1010.038818359375	-454.2557373046876	98.15054321289065	-1048.950927734375	-249.1503601074219	51.97905349731447	-1029.347900390625	-247.9604187011719	55.82810592651369	-1079.013061523438	-288.8534545898438	45.47378540039063	-1130.200073242188	-337.1929931640626	789.6480102539065	-698.6165161132814	-296.4733886718751	738.7575073242189	-702.0437011718751	-265.8803100585938	747.1331787109376	-713.4169921875001	-319.3258666992188	656.3740844726564	-709.1417236328126	-327.0769042968751	502.0870666503907	-738.3328247070314	-285.3884277343751	494.8150329589845	-860.9260253906252	-283.6364135742188	352.0207824707032	-801.1262207031252	-341.8764953613282	278.4757995605469	-745.1253662109376	-305.2348632812501	270.5832824707032	-775.4110107421877	-317.1070556640626	226.9314422607422	-812.4940185546877	-395.3032226562501	112.7784576416016	-777.7769165039065	-360.5024414062501	135.3479919433594	-857.370544433594	-446.7345275878907	92.06184387207033	-837.2159423828127	-242.2189483642579	59.26119232177736	-825.0732421875002	-247.3437500000001	57.94820404052736	-782.611022949219	-289.8094482421876	36.17314910888673	-735.3625488281251	-288.6165771484376	998.817321777344	-765.1887207031251	-294.5065612792969	991.7713623046877	-1024.846435546875	
